<svg id="Layer_1" data-name="Layer 1" xmlns="http://www.w3.org/2000/svg" viewBox="0 0 512 512"><defs><style>.cls-1{fill:#119548;}.cls-2{fill:#108140;}.cls-3{fill:none;stroke:#138140;stroke-miterlimit:10;stroke-width:20px;}.cls-4{fill:#fff;}.cls-5{fill:#159448;}</style></defs><title>icon</title><g id="Layer_2" data-name="Layer 2"><path class="cls-1" d="M97.17,0h-45Q160.1,133.6,256,256,180.64,131.35,97.17,0Z"/><path class="cls-2" d="M173.4,0H137.08Q199.21,129.84,256,256,216.39,128.88,173.4,0Z"/><path class="cls-1" d="M239.92,0h-32.6Q232.58,128.3,256,256,248.26,128,239.92,0Z"/><path class="cls-2" d="M304.68,0h-32.6Q263.76,128,256,256,279.4,128.31,304.68,0Z"/><path class="cls-1" d="M374.92,0H338.6q-43,128.88-82.6,256Q312.78,129.85,374.92,0Z"/><path class="cls-2" d="M459.87,0h-45Q331.37,131.34,256,256,351.88,133.62,459.87,0Z"/><path class="cls-1" d="M512,52.13V0L256,256Q378.39,160.12,512,52.13Z"/><path class="cls-2" d="M512,137.08V97.17Q380.66,180.63,256,256,382.15,199.23,512,137.08Z"/><path class="cls-1" d="M512,207.32V173.4q-128.88,43-256,82.6Q383.7,232.6,512,207.32Z"/><path class="cls-2" d="M512,272.08V239.92Q384,248.25,256,256,384,263.74,512,272.08Z"/><path class="cls-1" d="M512,338.6V304.68Q383.71,279.42,256,256,383.13,295.62,512,338.6Z"/><path class="cls-2" d="M512,414.83V374.92Q382.16,312.79,256,256,380.65,331.36,512,414.83Z"/><path class="cls-1" d="M512,512h0V459.87Q378.4,351.9,256,256Z"/><path class="cls-2" d="M414.83,512h45Q351.9,378.4,256,256,331.36,380.65,414.83,512Z"/><path class="cls-1" d="M338.6,512h36.32Q312.79,382.16,256,256,295.62,383.13,338.6,512Z"/><path class="cls-2" d="M272.08,512h32.6Q279.42,383.71,256,256,263.74,384,272.08,512Z"/><path class="cls-1" d="M207.32,512h32.6Q248.25,384,256,256,232.6,383.7,207.32,512Z"/><path class="cls-2" d="M137.08,512H173.4q43-128.88,82.6-256Q199.23,382.15,137.08,512Z"/><path class="cls-1" d="M52.13,512h45Q180.63,380.66,256,256,160.12,378.39,52.13,512Z"/><path class="cls-2" d="M0,459.87V512L256,256Q133.62,351.88,0,459.87Z"/><path class="cls-1" d="M0,374.92v39.91Q131.34,331.37,256,256,129.85,312.78,0,374.92Z"/><path class="cls-2" d="M0,304.68V338.6q128.88-43,256-82.6Q128.31,279.4,0,304.68Z"/><path class="cls-1" d="M0,239.92v32.16Q128,263.76,256,256,128,248.26,0,239.92Z"/><path class="cls-2" d="M0,173.4v33.92Q128.3,232.58,256,256,128.88,216.39,0,173.4Z"/><path class="cls-1" d="M0,97.17v39.91Q129.84,199.21,256,256,131.35,180.64,0,97.17Z"/><path class="cls-2" d="M0,0V52.13Q133.6,160.1,256,256Z"/></g><circle class="cls-3" cx="256" cy="256" r="160.46"/><circle class="cls-4" cx="256.91" cy="256.85" r="157.97"/><path class="cls-5" d="M255.33,118.94A137.06,137.06,0,1,0,392.39,256,137.06,137.06,0,0,0,255.33,118.94ZM270,305.77l-.52.52q-15.94,15.94-31.9,31.89c-8.68,8.64-19.18,12.95-28.59,13.1-28.27,0-48.54-21.66-46.73-47A43.33,43.33,0,0,1,175.16,276c13.21-13.26,26.38-26.56,39.7-39.71,17.4-17.17,44.64-17.38,61.86-.65,5.16,5,5.61,12.6,1,17.7a12.71,12.71,0,0,1-17.89.79c-3.53-3.09-7.34-5.29-12.09-5.62a18.7,18.7,0,0,0-15.15,5.72l-12.24,12.23c-9.08,9.07-18.19,18.1-27.21,27.21-8.61,8.7-7.54,22.16,2.22,29,7.5,5.28,17.45,4.35,24.24-2.33,5.33-5.25,10.59-10.58,15.88-15.88,2.38-2.39,4.8-4.75,7.14-7.18a3.74,3.74,0,0,1,4.49-1,53.22,53.22,0,0,0,20.31,3.7,3.35,3.35,0,0,1,3.45,1.95C271.59,303.45,271,304.67,270,305.77Zm80.76-94.84a78.44,78.44,0,0,1-2.25,9.82,42.72,42.72,0,0,1-10,16.37Q318.13,257.61,297.64,278a42.81,42.81,0,0,1-28.46,12.51c-13.06.83-24.09-3.52-33.4-12.46a12.45,12.45,0,0,1-.69-17.44,12.74,12.74,0,0,1,17.63-1c2.78,2.4,5.65,4.56,9.29,5.37a18.62,18.62,0,0,0,18.09-5.13c4.33-4.26,8.61-8.57,12.91-12.87,8.85-8.84,17.75-17.65,26.55-26.55,8.53-8.61,7.53-22-2.08-28.93a18.46,18.46,0,0,0-23.27,1.3c-6.23,5.81-12.14,12-18.19,18-2,2-4,4-6,6a3.55,3.55,0,0,1-4.18.95,53.94,53.94,0,0,0-20.66-3.81,3.2,3.2,0,0,1-3.24-2,3.09,3.09,0,0,1,.85-3.68c11.47-11.44,22.83-23,34.47-34.26,6.57-6.36,14.72-9.82,23.8-11a7.61,7.61,0,0,0,1-.31h9.2a4.49,4.49,0,0,0,.85.29c18.3,2.87,30.44,13.13,36.59,30.54,1,2.89,1.32,6,2,8.94Z"/></svg>